<?xml version="1.0" encoding="UTF-8"?>
<!DOCTYPE svg PUBLIC "-//W3C//DTD SVG 1.1//EN" "http://www.w3.org/Graphics/SVG/1.1/DTD/svg11.dtd">
<svg xmlns="http://www.w3.org/2000/svg" version="1.1" width="118px" height="103px" style="shape-rendering:geometricPrecision; text-rendering:geometricPrecision; image-rendering:optimizeQuality; fill-rule:evenodd; clip-rule:evenodd" xmlns:xlink="http://www.w3.org/1999/xlink">
<g><path style="opacity:0.921" fill="#fe6500" d="M 46.5,-0.5 C 52.1667,-0.5 57.8333,-0.5 63.5,-0.5C 63.6567,0.873441 63.49,2.20677 63,3.5C 47.9859,18.3472 33.1526,33.3472 18.5,48.5C 30.1525,60.6527 41.9858,72.6527 54,84.5C 54.6667,85.5 54.6667,86.5 54,87.5C 51.8333,89.6667 49.6667,91.8333 47.5,94C 46.1667,94.6667 44.8333,94.6667 43.5,94C 28.9652,79.2981 14.2985,64.7981 -0.5,50.5C -0.5,49.1667 -0.5,47.8333 -0.5,46.5C 15.5,31.1667 31.1667,15.5 46.5,-0.5 Z"/></g>
<g><path style="opacity:0.949" fill="#fe6600" d="M 117.5,52.5 C 117.5,53.1667 117.5,53.8333 117.5,54.5C 101.861,70.4732 86.194,86.4732 70.5,102.5C 64.5,102.5 58.5,102.5 52.5,102.5C 52.3505,101.448 52.5172,100.448 53,99.5C 68.2083,84.6259 83.0416,69.4592 97.5,54C 86.0422,41.5412 74.2089,29.3745 62,17.5C 61.3333,16.5 61.3333,15.5 62,14.5C 64.7193,11.0778 67.8859,8.57777 71.5,7C 86.7015,22.3685 102.035,37.5352 117.5,52.5 Z"/></g>
<g><path style="opacity:0.936" fill="#fe6500" d="M 53.5,22.5 C 56.2626,22.7438 58.4293,24.0771 60,26.5C 61.3333,29.1667 62.6667,31.8333 64,34.5C 65.5741,42.5447 67.0741,50.5447 68.5,58.5C 69.8064,57.0878 70.6397,55.4211 71,53.5C 71.2708,49.0462 71.4374,44.7129 71.5,40.5C 73.758,42.6768 75.258,45.3435 76,48.5C 78.118,65.7102 70.618,73.8769 53.5,73C 41.4277,66.3956 37.9277,56.5623 43,43.5C 45.2798,39.5533 47.9465,35.8866 51,32.5C 53.0063,29.4642 53.8396,26.1309 53.5,22.5 Z"/></g>
</svg>
